<?xml version="1.0" encoding="UTF-8"?>
<svg xmlns="http://www.w3.org/2000/svg" version="1.1" viewBox="0 0 300 300">
  <defs>
    <style>
      .cls-1, .cls-2, .cls-3, .cls-4, .cls-5, .cls-6 {
        stroke-miterlimit: 10;
      }

      .cls-1, .cls-4, .cls-5 {
        stroke: #000;
        stroke-width: .25px;
      }

      .cls-2, .cls-3 {
        stroke: #c80000;
        stroke-width: 14px;
      }

      .cls-2, .cls-4, .cls-7 {
        fill: #c80000;
      }

      .cls-3, .cls-5, .cls-6 {
        fill: none;
      }

      .cls-5 {
        opacity: .4;
      }

      .cls-6 {
        stroke: #101010;
        stroke-width: 16px;
      }

      .cls-8 {
        fill: #101010;
      }
    </style>
  </defs>
  <!-- Generator: Adobe Illustrator 28.6.0, SVG Export Plug-In . SVG Version: 1.2.0 Build 709)  -->
  <g>
    <g id="Layer_1">
      <line class="cls-5" x1="150" y1="-13.8" x2="150" y2="303.95"/>
    </g>
    <g id="Layer_2">
      <rect width="300" height="300"/>
      <path class="cls-4" d="M137.49,276.69C33.05,216.79,33.14,105.93,37.61,62.8c1.1-10.58,8.63-19.36,18.94-22l87.17-22.31c4.12-1.06,8.45-1.06,12.57,0l87.17,22.31c10.3,2.64,17.84,11.42,18.94,22,4.47,43.13,4.56,153.99-99.88,213.89-7.74,4.44-17.29,4.44-25.03,0Z"/>
      <path class="cls-1" d="M142.7,263.41C42.4,208.66,47.51,101.59,51.86,68.04c.8-6.17,5.28-11.23,11.31-12.78l83.06-21.26c2.47-.63,5.07-.63,7.54,0l83.06,21.26c6.03,1.54,10.51,6.6,11.31,12.78,4.35,33.55,9.46,140.62-90.84,195.37-4.54,2.48-10.05,2.48-14.6,0Z"/>
      <path class="cls-6" d="M114,116.07c0-19.88,16.12-36,36-36s36,16.12,36,36"/>
      <line class="cls-6" x1="114" y1="116.07" x2="114" y2="125.23"/>
      <line class="cls-6" x1="186" y1="116.07" x2="186" y2="130.88"/>
      <rect class="cls-8" x="91.63" y="125.23" width="116.74" height="81.85" rx="15.59" ry="15.59"/>
      <circle cx="150.86" cy="154.65" r="11.51"/>
      <rect x="143.83" y="158.6" width="13.17" height="28.98" rx="2.78" ry="2.78"/>
      <circle class="cls-3" cx="178.62" cy="103.05" r="25.17"/>
      <path class="cls-2" d="M160.73,120.95c-18.99,19.13-37.99,39.13-57.53,57.53"/>
      <circle class="cls-7" cx="103.21" cy="178.47" r="7"/>
      <path class="cls-7" d="M111.47,162.68h35.71v18.96c0,3.67-2.98,6.65-6.65,6.65h-22.42c-3.67,0-6.65-2.98-6.65-6.65v-18.96h0Z" transform="translate(-86.21 142.85) rotate(-45)"/>
    </g>
  </g>
</svg>