<?xml version="1.0" encoding="UTF-8"?>
<svg xmlns="http://www.w3.org/2000/svg" version="1.1" viewBox="0 0 300 300">
  <defs>
    <style>
      .cls-1 {
        fill: #ef4e4e;
      }

      .cls-1, .cls-2, .cls-3, .cls-4, .cls-5, .cls-6, .cls-7, .cls-8, .cls-9 {
        stroke-miterlimit: 10;
      }

      .cls-1, .cls-4, .cls-6, .cls-7, .cls-8, .cls-9 {
        stroke-width: 6px;
      }

      .cls-1, .cls-7, .cls-9 {
        stroke: #1e262a;
      }

      .cls-10 {
        fill: #7fe2e8;
      }

      .cls-2 {
        fill: #ef4e4e;
      }

      .cls-2, .cls-3, .cls-5, .cls-6, .cls-8 {
        stroke: #000;
      }

      .cls-3, .cls-8 {
        fill: #fff;
      }

      .cls-4 {
        stroke: #a43535;
      }

      .cls-4, .cls-5, .cls-6, .cls-9 {
        fill: none;
      }

      .cls-5 {
        opacity: .5;
        stroke-width: .5px;
      }

      .cls-11 {
        fill: #aaf0f0;
      }

      .cls-12 {
        fill: #69c5dd;
      }

      .cls-13 {
        fill: #a43535;
      }

      .cls-7 {
        fill: #1e262a;
      }
    </style>
  </defs>
  <!-- Generator: Adobe Illustrator 28.6.0, SVG Export Plug-In . SVG Version: 1.2.0 Build 709)  -->
  <g>
    <g id="Layer_2">
      <path class="cls-2" d="M198.45-29.57"/>
      <path class="cls-8" d="M246.99,258.83"/>
      <path class="cls-8" d="M246.99,126.94"/>
      <path class="cls-8" d="M227.94,107.89"/>
      <path class="cls-8" d="M74.42,107.89"/>
      <path class="cls-8" d="M55.36,126.94"/>
      <path class="cls-8" d="M55.36,258.83"/>
      <path class="cls-8" d="M74.42,277.89"/>
      <path class="cls-8" d="M227.94,277.89"/>
      <line class="cls-5" x1="265.18" y1="136.45" x2="37.18" y2="136.45"/>
      <polygon class="cls-10" points="55.36 176.4 55.43 240.85 64.52 253.38 232.84 255.73 246.99 245.77 246.99 176.4 55.36 176.4"/>
      <polygon class="cls-12" points="246.99 176.4 55.36 176.4 55.37 119.91 244.93 120.68 246.99 176.4"/>
      <g>
        <path class="cls-1" d="M246.99,229.38v10.22c0,8.91-8.53,16.13-19.05,16.13h-34.1v-26.35h53.15Z"/>
        <line class="cls-9" x1="246.99" y1="229.38" x2="246.99" y2="127.97"/>
        <path class="cls-1" d="M227.94,111.84c10.52,0,19.05,7.22,19.05,16.13"/>
        <path class="cls-9" d="M74.42,111.84h153.52"/>
        <path class="cls-1" d="M55.36,127.97c0-8.91,8.53-16.13,19.05-16.13"/>
        <line class="cls-9" x1="55.37" y1="229.38" x2="55.37" y2="127.97"/>
        <path class="cls-1" d="M108.52,229.38v26.35h-34.1c-10.52,0-19.05-7.22-19.05-16.13v-10.22h53.15Z"/>
        <line class="cls-9" x1="193.84" y1="255.73" x2="108.52" y2="255.73"/>
      </g>
      <path class="cls-6" d="M40.12,136.45"/>
      <path class="cls-6" d="M188.14,135.73"/>
      <line class="cls-9" x1="193.84" y1="229.38" x2="193.84" y2="110.55"/>
      <line class="cls-9" x1="108.52" y1="229.38" x2="108.52" y2="111.84"/>
      <polygon class="cls-2" points="223.58 48.12 235.99 51.41 246.99 60.85 262.12 136.46 256.94 149.29 250.11 153.78 237.46 153.78 227.94 146.27 212.85 48.12 223.58 48.12"/>
      <polygon class="cls-2" points="212.85 48.12 225.12 136.46 218.98 150.22 206.62 154.96 192.05 147.86 188.12 136.46 180.36 48.12 212.85 48.12"/>
      <polygon class="cls-2" points="151.82 49.87 180.36 48.12 188.12 136.46 182.84 149.39 169.62 154.96 158.75 151.43 151.18 141.45 151.82 49.87"/>
      <polygon class="cls-3" points="151.12 48.12 151.18 141.45 146.14 149.08 132.62 154.96 122.25 151.78 114.12 141.45 119.34 48.12 151.12 48.12"/>
      <polygon class="cls-2" points="89.04 48.12 77.12 136.46 83.08 150.06 95.62 154.96 108.51 149.72 114.12 141.45 119.34 48.12 89.04 48.12"/>
      <path class="cls-2" d="M64.89,52.42c-1.75.96-10.44,15.54-10.44,15.54l-14.33,68.49,5.65,13.3,12.85,5.2,12.27-4.66,6.23-13.84,11.93-88.34-24.15,4.31Z"/>
      <polygon class="cls-13" points="77.12 132.74 40.12 132.74 40.12 145.69 48.65 153.78 61.71 153.78 70.89 150.21 77.14 141.12 77.12 132.74"/>
      <polygon class="cls-11" points="152.46 132.74 115.46 132.74 115.46 145.69 123.99 153.78 137.05 153.78 146.23 150.21 152.48 141.12 152.46 132.74"/>
      <polygon class="cls-13" points="115.44 132.74 78.44 132.74 78.44 145.69 86.97 153.78 100.03 153.78 109.21 150.21 115.46 141.12 115.44 132.74"/>
      <polygon class="cls-13" points="189.48 132.74 152.48 132.74 152.48 145.69 161.01 153.78 174.07 153.78 183.25 150.21 189.5 141.12 189.48 132.74"/>
      <polygon class="cls-13" points="226.5 132.74 189.5 132.74 189.5 145.69 198.03 153.78 211.09 153.78 220.27 150.21 226.52 141.12 226.5 132.74"/>
      <polygon class="cls-13" points="263.52 132.74 226.52 132.74 226.52 145.69 235.05 153.78 248.11 153.78 257.29 150.21 263.54 141.12 263.52 132.74"/>
      <line class="cls-4" x1="151.12" y1="136.46" x2="151.12" y2="48.12"/>
      <line class="cls-4" x1="77.14" y1="135.73" x2="89.04" y2="48.12"/>
      <path class="cls-4" d="M114.12,136.46c.02-.73,5.22-88.34,5.22-88.34"/>
      <line class="cls-4" x1="225.12" y1="136.46" x2="212.85" y2="48.12"/>
      <line class="cls-4" x1="188.14" y1="135.73" x2="180.36" y2="48.12"/>
      <circle class="cls-7" cx="138.65" cy="212.19" r="5"/>
      <path class="cls-9" d="M262.12,136.46c0,10.22-8.28,18.5-18.5,18.5s-18.5-8.28-18.5-18.5c0-.25,0-.49.02-.73h-.04c.02.24.02.48.02.73,0,10.22-8.28,18.5-18.5,18.5s-18.5-8.28-18.5-18.5c0-.25,0-.49.02-.73h-.04c.02.24.02.48.02.73,0,10.22-8.28,18.5-18.5,18.5s-18.5-8.28-18.5-18.5c0-.25,0-.49.02-.73h-.04c.02.24.02.48.02.73,0,10.22-8.28,18.5-18.5,18.5s-18.5-8.28-18.5-18.5c0-.25,0-.49.02-.73h-.04c.02.24.02.48.02.73,0,10.22-8.28,18.5-18.5,18.5s-18.5-8.28-18.5-18.5c0-.25,0-.49.02-.73h-.04c.02.24.02.48.02.73,0,10.22-8.28,18.5-18.5,18.5s-18.5-8.28-18.5-18.5c0-2.39.45-4.67,1.28-6.76l13.05-61.73c2.44-11.57,12.65-19.85,24.48-19.85h144.65c11.83,0,22.04,8.28,24.48,19.85l13.54,64.01c.02.12.04.24.05.36.31,1.32.47,2.7.47,4.12Z"/>
      <circle class="cls-7" cx="164.35" cy="212.19" r="5"/>
    </g>
  </g>
</svg>